<svg width="70" height="70" viewBox="0 0 70 70" fill="none" xmlns="http://www.w3.org/2000/svg">
<path d="M18.5074 63.1161C20.8143 63.1161 23.0694 62.4319 24.9875 61.1502C26.9056 59.8684 28.4006 58.0467 29.2834 55.9152C30.1662 53.7837 30.3972 51.4383 29.9471 49.1756C29.4971 46.9128 28.3862 44.8344 26.755 43.203C25.1238 41.5717 23.0455 40.4607 20.7829 40.0106C18.5203 39.5606 16.1751 39.7916 14.0438 40.6744C11.9126 41.5573 10.0909 43.0524 8.80928 44.9707C7.52764 46.8889 6.84357 49.1442 6.84357 51.4513C6.84357 54.545 8.07243 57.5119 10.2598 59.6995C12.4472 61.8871 15.414 63.1161 18.5074 63.1161ZM18.5074 45.2618C19.7281 45.2618 20.9213 45.6236 21.9365 46.3016C22.9516 46.9795 23.743 47.9431 24.2108 49.0707C24.6786 50.1982 24.8017 51.4391 24.5646 52.6367C24.3275 53.8342 23.7408 54.9345 22.8786 55.7987C22.0165 56.6629 20.9176 57.2522 19.7207 57.492C18.5239 57.7319 17.2828 57.6116 16.1542 57.1464C15.0257 56.6812 14.0603 55.8919 13.3801 54.8782C12.6999 53.8646 12.3354 52.672 12.3326 51.4513C12.3326 49.8135 12.9832 48.2428 14.1412 47.0847C15.2992 45.9266 16.8697 45.276 18.5074 45.276V45.2618Z" fill="#642D91"/>
<path d="M35 70C37.3067 69.9994 39.5615 69.3148 41.4793 68.0327C43.397 66.7507 44.8916 64.9287 45.7739 62.7972C46.6563 60.6656 46.8869 58.3203 46.4365 56.0578C45.9861 53.7952 44.875 51.717 43.2437 50.0859C41.6124 48.4549 39.5341 47.3442 37.2716 46.8943C35.0091 46.4445 32.6641 46.6756 30.5329 47.5586C28.4018 48.4416 26.5803 49.9367 25.2988 51.8549C24.0173 53.7731 23.3333 56.0282 23.3333 58.3352C23.3333 59.8673 23.6351 61.3844 24.2214 62.7998C24.8078 64.2152 25.6672 65.5012 26.7506 66.5845C27.834 67.6677 29.1201 68.5268 30.5356 69.1129C31.951 69.6989 33.468 70.0004 35 70ZM35 52.1599C36.2212 52.1599 37.4151 52.5221 38.4305 53.2006C39.4459 53.8792 40.2374 54.8436 40.7047 55.972C41.1721 57.1004 41.2944 58.3421 41.0561 59.5399C40.8179 60.7378 40.2298 61.8382 39.3662 62.7018C38.5027 63.5654 37.4024 64.1536 36.2046 64.3919C35.0068 64.6301 33.7653 64.5078 32.637 64.0404C31.5087 63.573 30.5443 62.7815 29.8658 61.766C29.1873 60.7505 28.8252 59.5566 28.8252 58.3352C28.8233 57.5231 28.9817 56.7185 29.2911 55.9677C29.6006 55.2168 30.0551 54.5344 30.6287 53.9594C31.2023 53.3845 31.8836 52.9284 32.6337 52.6171C33.3838 52.3059 34.1879 52.1457 35 52.1457V52.1599Z" fill="#642D91"/>
<path d="M11.6695 23.3296C9.36194 23.329 7.10603 24.0128 5.18708 25.2946C3.26814 26.5763 1.77235 28.3983 0.888891 30.5302C0.00543399 32.6622 -0.226009 35.0082 0.223832 37.2717C0.673673 39.5352 1.78459 41.6144 3.41609 43.2464C5.04759 44.8785 7.12639 45.99 9.38958 46.4404C11.6528 46.8908 13.9987 46.6599 16.1307 45.7769C18.2626 44.8939 20.0849 43.3985 21.367 41.4797C22.649 39.5609 23.3334 37.305 23.3334 34.9972C23.3337 33.4651 23.0323 31.948 22.4463 30.5324C21.8603 29.1169 21.0012 27.8306 19.9181 26.7471C18.835 25.6637 17.549 24.8042 16.1337 24.2178C14.7184 23.6314 13.2015 23.3296 11.6695 23.3296ZM11.6695 41.1838C10.4493 41.181 9.25735 40.8168 8.24402 40.137C7.23069 39.4573 6.44145 38.4925 5.97593 37.3645C5.51042 36.2366 5.38949 34.9959 5.62843 33.7993C5.86737 32.6026 6.45545 31.5036 7.31844 30.641C8.18143 29.7783 9.28064 29.1907 10.4773 28.9523C11.674 28.7138 12.9144 28.8353 14.0421 29.3014C15.1698 29.7675 16.1341 30.5572 16.8133 31.571C17.4925 32.5847 17.8562 33.7769 17.8585 34.9972C17.8585 35.8092 17.6983 36.6132 17.3871 37.3632C17.0758 38.1132 16.6197 38.7944 16.0448 39.3678C15.4698 39.9412 14.7874 40.3955 14.0366 40.7047C13.2859 41.0139 12.4815 41.1719 11.6695 41.1697V41.1838Z" fill="#642D91"/>
<path d="M51.4897 63.1161C53.7966 63.1161 56.0517 62.4319 57.9698 61.1502C59.8879 59.8684 61.3829 58.0467 62.2657 55.9152C63.1485 53.7837 63.3795 51.4383 62.9294 49.1756C62.4794 46.9128 61.3685 44.8344 59.7373 43.203C58.1061 41.5717 56.0278 40.4607 53.7652 40.0106C51.5026 39.5606 49.1574 39.7916 47.0261 40.6744C44.8949 41.5573 43.0732 43.0524 41.7916 44.9707C40.5099 46.8889 39.8259 49.1442 39.8259 51.4513C39.8259 54.545 41.0547 57.5119 43.2421 59.6995C45.4295 61.8871 48.3963 63.1161 51.4897 63.1161ZM51.4897 45.2618C52.7111 45.2612 53.9052 45.6229 54.921 46.3012C55.9368 46.9794 56.7287 47.9436 57.1965 49.072C57.6643 50.2003 57.787 51.442 57.549 52.6401C57.3111 53.8382 56.7232 54.9388 55.8598 55.8027C54.9963 56.6666 53.8961 57.255 52.6982 57.4935C51.5004 57.7321 50.2587 57.6099 49.1302 57.1426C48.0017 56.6753 47.0372 55.8838 46.3586 54.8682C45.6799 53.8526 45.3177 52.6586 45.3177 51.4371C45.3207 49.802 45.9723 48.235 47.1295 47.0798C48.2866 45.9247 49.8548 45.276 51.4897 45.276V45.2618Z" fill="#642D91"/>
<path d="M58.3277 23.3295C56.0205 23.3306 53.7654 24.0158 51.8476 25.2986C49.9298 26.5813 48.4353 28.4039 47.5531 30.536C46.671 32.6681 46.4408 35.0139 46.8916 37.2768C47.3424 39.5397 48.4539 41.6182 50.0858 43.2493C51.7176 44.8805 53.7964 45.9912 56.0594 46.4409C58.3223 46.8907 60.6678 46.6593 62.7993 45.776C64.9308 44.8927 66.7525 43.3973 68.0342 41.4787C69.3159 39.5601 70 37.3045 70 34.9971C70.0004 33.4643 69.6987 31.9464 69.1122 30.5303C68.5256 29.1142 67.6658 27.8276 66.5818 26.744C65.4977 25.6604 64.2108 24.8011 62.7945 24.2152C61.3782 23.6293 59.8604 23.3284 58.3277 23.3295ZM58.3277 41.1837C57.1063 41.1837 55.9124 40.8215 54.8969 40.1428C53.8814 39.4641 53.0899 38.4995 52.6226 37.371C52.1554 36.2424 52.0333 35.0006 52.2717 33.8026C52.5102 32.6047 53.0986 31.5043 53.9624 30.6408C54.8263 29.7773 55.9268 29.1894 57.1248 28.9514C58.3228 28.7135 59.5644 28.8362 60.6926 29.304C61.8209 29.7718 62.7851 30.5638 63.4632 31.5797C64.1414 32.5956 64.5031 33.7898 64.5025 35.0113C64.498 36.6461 63.8454 38.2124 62.6879 39.3669C61.5304 40.5213 59.9624 41.1696 58.3277 41.1696V41.1837Z" fill="#642D91"/>
<path d="M51.4897 6.87476C49.1823 6.87476 46.9266 7.55905 45.0081 8.8411C43.0895 10.1232 41.5942 11.9454 40.7111 14.0774C39.8281 16.2093 39.5971 18.5553 40.0472 20.8186C40.4974 23.0819 41.6085 25.1609 43.2402 26.7926C44.8718 28.4244 46.9506 29.5356 49.2137 29.9858C51.4768 30.436 53.8226 30.2049 55.9544 29.3218C58.0862 28.4387 59.9082 26.9433 61.1902 25.0245C62.4721 23.1058 63.1564 20.85 63.1564 18.5424C63.1568 17.0101 62.8552 15.4927 62.2691 14.0769C61.6829 12.6612 60.8235 11.3748 59.7401 10.2913C58.6567 9.20778 57.3704 8.34836 55.9548 7.76214C54.5392 7.17592 53.0219 6.87438 51.4897 6.87476ZM51.4897 24.7148C50.2683 24.7148 49.0744 24.3526 48.0589 23.6739C47.0434 22.9952 46.252 22.0306 45.7847 20.9021C45.3174 19.7735 45.1953 18.5317 45.4338 17.3337C45.6723 16.1358 46.2606 15.0355 47.1245 14.1719C47.9883 13.3084 49.0888 12.7205 50.2868 12.4825C51.4848 12.2446 52.7264 12.3673 53.8547 12.8351C54.9829 13.3029 55.9471 14.0949 56.6253 15.1108C57.3034 16.1267 57.6651 17.3209 57.6645 18.5424C57.6645 19.3532 57.5048 20.1561 57.1944 20.9051C56.8841 21.6542 56.4292 22.3348 55.8558 22.908C55.2824 23.4812 54.6016 23.9358 53.8525 24.2458C53.1034 24.5558 52.3005 24.7152 51.4897 24.7148Z" fill="#642D91"/>
<path d="M35.0001 0C32.6932 0 30.4382 0.684127 28.5201 1.96587C26.602 3.24761 25.107 5.0694 24.2242 7.20086C23.3414 9.33232 23.1104 11.6777 23.5604 13.9405C24.0105 16.2032 25.1213 18.2817 26.7526 19.913C28.3838 21.5444 30.4621 22.6553 32.7246 23.1054C34.9872 23.5555 37.3324 23.3245 39.4637 22.4416C41.595 21.5587 43.4166 20.0636 44.6983 18.1454C45.9799 16.2271 46.664 13.9719 46.664 11.6648C46.664 8.57109 45.4351 5.6041 43.2477 3.41653C41.0603 1.22896 38.0936 0 35.0001 0V0ZM35.0001 17.8542C33.7788 17.8548 32.5846 17.4931 31.5688 16.8149C30.553 16.1367 29.7611 15.1724 29.2933 14.0441C28.8256 12.9158 28.7029 11.674 28.9408 10.4759C29.1787 9.27787 29.7666 8.17727 30.6301 7.31335C31.4935 6.44944 32.5937 5.86101 33.7916 5.62251C34.9895 5.384 36.2312 5.50613 37.3596 5.97344C38.4881 6.44075 39.4526 7.23225 40.1313 8.24784C40.8099 9.26342 41.1721 10.4575 41.1721 11.6789C41.1721 13.3162 40.5219 14.8865 39.3645 16.0445C38.2072 17.2026 36.6373 17.8535 35.0001 17.8542Z" fill="#642D91"/>
<path d="M18.5075 6.87476C16.1999 6.8742 13.944 7.55801 12.025 8.83973C10.1061 10.1214 8.6103 11.9435 7.72684 14.0754C6.84339 16.2073 6.61194 18.5534 7.06178 20.8169C7.51162 23.0804 8.62254 25.1596 10.254 26.7916C11.8855 28.4236 13.9643 29.5352 16.2275 29.9856C18.4907 30.436 20.8366 30.2051 22.9686 29.3221C25.1006 28.4391 26.9228 26.9436 28.2049 25.0248C29.487 23.106 30.1713 20.8501 30.1713 18.5424C30.1717 17.0103 29.8703 15.4931 29.2843 14.0776C28.6983 12.662 27.8392 11.3758 26.756 10.2923C25.6729 9.20882 24.387 8.34934 22.9717 7.76296C21.5564 7.17657 20.0394 6.87476 18.5075 6.87476ZM18.5075 24.7148C17.2861 24.7148 16.0921 24.3526 15.0766 23.6739C14.0611 22.9952 13.2697 22.0306 12.8024 20.9021C12.3351 19.7735 12.213 18.5317 12.4515 17.3337C12.69 16.1358 13.2784 15.0355 14.1422 14.1719C15.0061 13.3084 16.1066 12.7205 17.3046 12.4825C18.5025 12.2446 19.7442 12.3673 20.8724 12.8351C22.0007 13.3029 22.9649 14.0949 23.643 15.1108C24.3212 16.1267 24.6828 17.3209 24.6823 18.5424C24.6815 20.1797 24.0306 21.7497 22.8727 22.9071C21.7148 24.0646 20.1446 24.7148 18.5075 24.7148Z" fill="#642D91"/>
<path d="M30.1714 18.5422C30.1721 16.4025 29.5839 14.3039 28.4713 12.4763C27.3586 10.6487 25.7644 9.16269 23.8634 8.18103C23.0464 10.7998 23.1777 13.6227 24.2343 16.1542C25.2909 18.6858 27.2053 20.7644 29.6414 22.0252C29.9945 20.8979 30.1732 19.7234 30.1714 18.5422Z" fill="#B5287C"/>
<path d="M46.6639 11.664C46.6643 10.4829 46.4857 9.30857 46.134 8.18103C43.6979 9.44181 41.7835 11.5204 40.7269 14.052C39.6703 16.5835 39.539 19.4064 40.356 22.0252C42.2568 21.0432 43.8508 19.5572 44.9634 17.7296C46.076 15.9021 46.6644 13.8036 46.6639 11.664Z" fill="#B5287C"/>
<path d="M46.6638 58.3268C46.6639 56.1873 46.0754 54.0889 44.9629 52.2615C43.8503 50.434 42.2564 48.9479 40.3558 47.9657C39.5386 50.5849 39.6699 53.4082 40.7264 55.9402C41.783 58.4723 43.6975 60.5514 46.1339 61.8127C46.4853 60.6841 46.664 59.5089 46.6638 58.3268Z" fill="#B5287C"/>
<path d="M56.3411 40.8407C56.077 40.7521 55.8195 40.6451 55.5704 40.5205C53.124 39.6119 50.4446 39.5451 47.956 40.3306C49.1549 42.6571 51.0997 44.5141 53.479 45.6043C53.7428 45.6949 54.0003 45.8028 54.2498 45.9273C56.6951 46.8372 59.3744 46.903 61.8614 46.1144C60.6619 43.7893 58.7186 41.9327 56.3411 40.8407Z" fill="#B5287C"/>
<path d="M30.1712 51.4515C30.1732 50.2694 29.9945 49.0938 29.6413 47.9657C27.2049 49.227 25.2905 51.3061 24.2339 53.8381C23.1773 56.3702 23.0461 59.1935 23.8632 61.8127C25.7639 60.8305 27.3577 59.3444 28.4703 57.5169C29.5829 55.6894 30.1713 53.5911 30.1712 51.4515Z" fill="#B5287C"/>
<path d="M16.5181 24.3866C16.2556 24.2963 15.9991 24.1893 15.7502 24.0664C13.3046 23.1539 10.6238 23.0871 8.1358 23.8765C9.3354 26.2025 11.28 28.0593 13.6588 29.1502C13.9219 29.2403 14.1785 29.3482 14.4268 29.4733C16.873 30.3831 19.5532 30.4489 22.0412 29.6603C20.8407 27.335 18.8964 25.4785 16.5181 24.3866Z" fill="#B5287C"/>
<path d="M54.2498 24.0664C53.9997 24.1888 53.7423 24.2957 53.479 24.3866C51.1008 25.4785 49.1565 27.335 47.956 29.6603C50.4439 30.4489 53.1241 30.3831 55.5704 29.4732C55.8194 29.3477 56.077 29.2398 56.3411 29.1502C58.7192 28.0591 60.6628 26.2023 61.8614 23.8765C59.3743 23.087 56.6944 23.1539 54.2498 24.0664Z" fill="#B5287C"/>
<path d="M14.4268 40.5261C14.1784 40.6502 13.9218 40.7572 13.6588 40.8463C11.2806 41.9382 9.33628 43.7947 8.1358 46.12C10.6237 46.9086 13.3039 46.8428 15.7502 45.933C15.9985 45.8079 16.2551 45.7 16.5181 45.6099C18.8975 44.5197 20.8423 42.6628 22.0412 40.3363C19.5526 39.5507 16.8731 39.6175 14.4268 40.5261Z" fill="#B5287C"/>
<circle cx="35" cy="35" r="21" fill="#A8377A"/>
<path d="M44 33C44 40 35 46 35 46C35 46 26 40 26 33C26 30.6131 26.9482 28.3239 28.636 26.636C30.3239 24.9482 32.6131 24 35 24C37.3869 24 39.6761 24.9482 41.364 26.636C43.0518 28.3239 44 30.6131 44 33Z" stroke="white" stroke-width="2" stroke-linecap="round" stroke-linejoin="round"/>
<path d="M35 36C36.6569 36 38 34.6569 38 33C38 31.3431 36.6569 30 35 30C33.3431 30 32 31.3431 32 33C32 34.6569 33.3431 36 35 36Z" stroke="white" stroke-width="2" stroke-linecap="round" stroke-linejoin="round"/>
</svg>
