<svg width="189" height="40" viewBox="0 0 189 40" fill="none" xmlns="http://www.w3.org/2000/svg">
<path d="M10.5765 36.0664C11.8949 36.0664 13.1836 35.6755 14.2797 34.9431C15.3759 34.2106 16.2302 33.1696 16.7347 31.9516C17.2392 30.7337 17.3712 29.3934 17.114 28.1004C16.8569 26.8074 16.222 25.6197 15.2898 24.6875C14.3576 23.7553 13.1699 23.1205 11.8769 22.8633C10.5839 22.6061 9.2437 22.7381 8.02573 23.2426C6.80775 23.7471 5.76673 24.6015 5.0343 25.6976C4.30188 26.7938 3.91095 28.0825 3.91095 29.4008C3.91095 31.1686 4.61322 32.8641 5.86326 34.1141C7.1133 35.3641 8.80871 36.0664 10.5765 36.0664ZM10.5765 25.864C11.2741 25.864 11.956 26.0707 12.5362 26.4581C13.1163 26.8455 13.5686 27.3961 13.8359 28.0405C14.1032 28.6848 14.1736 29.3939 14.0381 30.0782C13.9026 30.7625 13.5673 31.3912 13.0746 31.8851C12.5819 32.3789 11.9539 32.7156 11.2699 32.8527C10.5859 32.9897 9.87668 32.921 9.23175 32.6552C8.58681 32.3893 8.03514 31.9383 7.64643 31.3591C7.25771 30.7798 7.04939 30.0984 7.04779 29.4008C7.04779 28.4649 7.41957 27.5674 8.08134 26.9056C8.74311 26.2439 9.64066 25.8721 10.5765 25.8721V25.864Z" fill="white"/>
<path d="M20.0016 40C21.3199 39.9997 22.6084 39.6085 23.7044 38.8759C24.8003 38.1432 25.6544 37.1021 26.1587 35.8841C26.6629 34.6661 26.7947 33.3259 26.5373 32.033C26.2799 30.7401 25.645 29.5526 24.7127 28.6206C23.7804 27.6885 22.5927 27.0538 21.2998 26.7968C20.0068 26.5397 18.6667 26.6718 17.4488 27.1764C16.2309 27.6809 15.19 28.5353 14.4577 29.6314C13.7253 30.7275 13.3344 32.0162 13.3344 33.3344C13.3344 34.2099 13.5069 35.0768 13.842 35.8856C14.177 36.6944 14.6682 37.4293 15.2873 38.0483C15.9064 38.6672 16.6414 39.1582 17.4503 39.4931C18.2592 39.828 19.1261 40.0002 20.0016 40ZM20.0016 29.8057C20.6995 29.8057 21.3818 30.0126 21.9621 30.4004C22.5424 30.7881 22.9947 31.3392 23.2618 31.984C23.5288 32.6288 23.5987 33.3383 23.4626 34.0228C23.3264 34.7073 22.9903 35.3361 22.4968 35.8296C22.0033 36.3231 21.3745 36.6592 20.69 36.7954C20.0055 36.9315 19.296 36.8616 18.6512 36.5945C18.0064 36.3275 17.4553 35.8752 17.0676 35.2949C16.6798 34.7146 16.4729 34.0323 16.4729 33.3344C16.4718 32.8703 16.5623 32.4106 16.7392 31.9815C16.916 31.5525 17.1758 31.1625 17.5036 30.834C17.8313 30.5054 18.2207 30.2448 18.6494 30.067C19.078 29.8891 19.5375 29.7976 20.0016 29.7976V29.8057Z" fill="white"/>
<path d="M6.66883 13.3312C5.35011 13.3309 4.06092 13.7216 2.96429 14.454C1.86766 15.1864 1.01285 16.2276 0.507979 17.4458C0.00310539 18.6641 -0.129159 20.0047 0.127914 21.2981C0.384987 22.5915 1.01985 23.7797 1.95221 24.7122C2.88457 25.6448 4.07255 26.28 5.36591 26.5374C6.65926 26.7948 7.9999 26.6628 9.21826 26.1582C10.4366 25.6537 11.478 24.7991 12.2107 23.7027C12.9433 22.6062 13.3344 21.3171 13.3344 19.9984C13.3346 19.1229 13.1624 18.256 12.8275 17.4471C12.4926 16.6382 12.0017 15.9032 11.3827 15.2841C10.7637 14.6649 10.0288 14.1738 9.22001 13.8387C8.4112 13.5036 7.5443 13.3312 6.66883 13.3312ZM6.66883 23.5336C5.97153 23.532 5.29034 23.3239 4.71125 22.9354C4.13216 22.547 3.68113 21.9957 3.41509 21.3511C3.14906 20.7066 3.07996 19.9977 3.21651 19.3139C3.35305 18.6301 3.68913 18.0021 4.1823 17.5091C4.67548 17.0161 5.30365 16.6804 5.98751 16.5441C6.67137 16.4079 7.38027 16.4773 8.0247 16.7437C8.66913 17.01 9.22022 17.4613 9.60838 18.0405C9.99655 18.6198 10.2044 19.3011 10.2057 19.9984C10.2057 20.4624 10.1141 20.9218 9.93626 21.3504C9.7584 21.779 9.49772 22.1682 9.16917 22.4959C8.84061 22.8235 8.45064 23.0831 8.02159 23.2598C7.59253 23.4365 7.13283 23.5268 6.66883 23.5255V23.5336Z" fill="white"/>
<path d="M29.4251 36.0664C30.7434 36.0664 32.0322 35.6755 33.1283 34.9431C34.2245 34.2106 35.0788 33.1696 35.5833 31.9516C36.0878 30.7337 36.2198 29.3934 35.9626 28.1004C35.7054 26.8074 35.0706 25.6197 34.1384 24.6875C33.2062 23.7553 32.0185 23.1205 30.7255 22.8633C29.4325 22.6061 28.0923 22.7381 26.8743 23.2426C25.6563 23.7471 24.6153 24.6015 23.8829 25.6976C23.1505 26.7938 22.7595 28.0825 22.7595 29.4008C22.7595 31.1686 23.4618 32.8641 24.7118 34.1141C25.9619 35.3641 27.6573 36.0664 29.4251 36.0664ZM29.4251 25.864C30.1231 25.8637 30.8055 26.0703 31.386 26.4579C31.9665 26.8454 32.4191 27.3964 32.6864 28.0412C32.9537 28.686 33.0238 29.3955 32.8879 30.0802C32.7519 30.7648 32.4159 31.3937 31.9225 31.8873C31.4291 32.381 30.8003 32.7173 30.1157 32.8535C29.4312 32.9898 28.7216 32.92 28.0767 32.653C27.4318 32.386 26.8806 31.9337 26.4928 31.3534C26.105 30.773 25.898 30.0907 25.898 29.3927C25.8997 28.4584 26.2721 27.5629 26.9333 26.9029C27.5946 26.2428 28.4908 25.8721 29.4251 25.8721V25.864Z" fill="white"/>
<path d="M33.3328 13.3312C32.0143 13.3318 30.7256 13.7234 29.6296 14.4564C28.5336 15.1894 27.6795 16.2309 27.1754 17.4492C26.6713 18.6675 26.5397 20.008 26.7973 21.3011C27.055 22.5942 27.6902 23.7819 28.6227 24.714C29.5553 25.6461 30.7433 26.2807 32.0365 26.5377C33.3297 26.7947 34.6701 26.6625 35.8882 26.1578C37.1063 25.6531 38.1474 24.7985 38.8798 23.7022C39.6123 22.6058 40.0032 21.3169 40.0032 19.9984C40.0034 19.1225 39.831 18.2552 39.4958 17.446C39.1607 16.6367 38.6693 15.9015 38.0498 15.2823C37.4303 14.6631 36.6948 14.1721 35.8855 13.8373C35.0761 13.5025 34.2087 13.3305 33.3328 13.3312ZM33.3328 23.5336C32.6348 23.5336 31.9525 23.3266 31.3722 22.9388C30.7918 22.551 30.3395 21.9998 30.0725 21.3549C29.8055 20.71 29.7357 20.0004 29.872 19.3158C30.0083 18.6313 30.3445 18.0025 30.8382 17.5091C31.3318 17.0157 31.9607 16.6797 32.6454 16.5437C33.33 16.4078 34.0395 16.4779 34.6843 16.7452C35.3291 17.0125 35.8801 17.4651 36.2676 18.0456C36.6552 18.6261 36.8619 19.3085 36.8615 20.0065C36.859 20.9407 36.4861 21.8357 35.8246 22.4954C35.1631 23.1551 34.267 23.5255 33.3328 23.5255V23.5336Z" fill="white"/>
<path d="M29.4251 3.92874C28.1065 3.92874 26.8175 4.31977 25.721 5.05237C24.6246 5.78497 23.7701 6.82625 23.2654 8.04452C22.7608 9.26279 22.6288 10.6033 22.886 11.8967C23.1433 13.19 23.7783 14.3779 24.7107 15.3104C25.6431 16.2428 26.8311 16.8778 28.1244 17.135C29.4177 17.3923 30.7583 17.2603 31.9766 16.7556C33.1948 16.251 34.2361 15.3965 34.9687 14.3C35.7013 13.2036 36.0924 11.9146 36.0924 10.5959C36.0926 9.72034 35.9203 8.85327 35.5853 8.04427C35.2503 7.23527 34.7592 6.5002 34.14 5.88105C33.5209 5.2619 32.7858 4.7708 31.9768 4.43582C31.1678 4.10084 30.3008 3.92853 29.4251 3.92874ZM29.4251 14.1231C28.7272 14.1231 28.0448 13.9161 27.4645 13.5283C26.8842 13.1404 26.4319 12.5892 26.1649 11.9443C25.8978 11.2995 25.828 10.5899 25.9643 9.90531C26.1006 9.22076 26.4369 8.592 26.9305 8.09856C27.4242 7.60512 28.0531 7.26916 28.7377 7.13319C29.4223 6.99722 30.1319 7.06733 30.7767 7.33466C31.4214 7.60199 31.9724 8.05453 32.36 8.63504C32.7475 9.21555 32.9542 9.89796 32.9539 10.5959C32.9539 11.0593 32.8626 11.5181 32.6852 11.9461C32.5079 12.3741 32.2479 12.763 31.9202 13.0906C31.5925 13.4181 31.2035 13.6779 30.7754 13.8551C30.3473 14.0322 29.8885 14.1233 29.4251 14.1231Z" fill="white"/>
<path d="M20.0016 0C18.6833 0 17.3946 0.39093 16.2984 1.12335C15.2023 1.85578 14.348 2.8968 13.8434 4.11478C13.3389 5.33275 13.2069 6.67298 13.4641 7.96598C13.7213 9.25898 14.3562 10.4467 15.2884 11.3789C16.2206 12.3111 17.4083 12.9459 18.7013 13.2031C19.9943 13.4603 21.3345 13.3283 22.5525 12.8238C23.7704 12.3193 24.8115 11.4649 25.5439 10.3688C26.2763 9.27264 26.6672 7.98392 26.6672 6.66559C26.6672 4.89776 25.965 3.20235 24.7149 1.95231C23.4649 0.702265 21.7695 0 20.0016 0V0ZM20.0016 10.2024C19.3037 10.2027 18.6213 9.99606 18.0407 9.60852C17.4602 9.22097 17.0077 8.66996 16.7404 8.0252C16.473 7.38043 16.4029 6.67087 16.5389 5.98625C16.6749 5.30164 17.0108 4.67272 17.5043 4.17906C17.9977 3.68539 18.6265 3.34915 19.311 3.21286C19.9956 3.07657 20.7052 3.14636 21.35 3.41339C21.9949 3.68043 22.5461 4.13272 22.934 4.71305C23.3218 5.29338 23.5288 5.9757 23.5288 6.67368C23.5288 7.60928 23.1572 8.50659 22.4958 9.16831C21.8344 9.83003 20.9372 10.202 20.0016 10.2024Z" fill="white"/>
<path d="M10.5765 3.92874C9.25783 3.92842 7.96863 4.31917 6.872 5.05158C5.77537 5.78399 4.92057 6.82515 4.41569 8.0434C3.91082 9.26164 3.77856 10.6022 4.03563 11.8957C4.2927 13.1891 4.92756 14.3772 5.85992 15.3098C6.79229 16.2424 7.98027 16.8775 9.27362 17.1349C10.567 17.3923 11.9076 17.2604 13.126 16.7558C14.3443 16.2512 15.3857 15.3967 16.1184 14.3002C16.8511 13.2038 17.2421 11.9147 17.2421 10.5959C17.2423 9.72047 17.0701 8.85353 16.7352 8.04464C16.4003 7.23575 15.9094 6.50075 15.2904 5.88162C14.6714 5.26249 13.9365 4.77136 13.1277 4.43628C12.3189 4.10121 11.452 3.92874 10.5765 3.92874ZM10.5765 14.1231C9.87855 14.1231 9.19624 13.9161 8.61591 13.5283C8.03558 13.1404 7.58329 12.5892 7.31625 11.9443C7.04922 11.2995 6.97943 10.5899 7.11572 9.90531C7.25201 9.22076 7.58825 8.592 8.08192 8.09856C8.57558 7.60512 9.2045 7.26916 9.88911 7.13319C10.5737 6.99722 11.2833 7.06733 11.9281 7.33466C12.5728 7.60199 13.1238 8.05453 13.5114 8.63504C13.8989 9.21555 14.1056 9.89796 14.1053 10.5959C14.1049 11.5315 13.7329 12.4287 13.0712 13.0901C12.4094 13.7515 11.5121 14.1231 10.5765 14.1231Z" fill="white"/>
<path d="M17.2421 10.596C17.2425 9.3733 16.9064 8.1741 16.2706 7.12977C15.6347 6.08543 14.7237 5.23627 13.6373 4.67532C13.1704 6.17176 13.2454 7.78482 13.8493 9.23144C14.4531 10.6781 15.5471 11.8658 16.9393 12.5863C17.141 11.9421 17.2432 11.271 17.2421 10.596Z" fill="#7F529A"/>
<path d="M26.6672 6.66561C26.6675 5.99069 26.5653 5.31963 26.3644 4.67532C24.9722 5.39577 23.8782 6.58352 23.2744 8.03014C22.6705 9.47676 22.5955 11.0898 23.0624 12.5863C24.1487 12.0252 25.0596 11.176 25.6954 10.1317C26.3313 9.08737 26.6675 7.88824 26.6672 6.66561Z" fill="#7F529A"/>
<path d="M26.6672 33.3296C26.6673 32.107 26.331 30.9079 25.6952 29.8636C25.0594 28.8194 24.1485 27.9701 23.0624 27.4089C22.5954 28.9056 22.6704 30.5189 23.2742 31.9658C23.878 33.4127 24.972 34.6007 26.3644 35.3215C26.5652 34.6766 26.6673 34.005 26.6672 33.3296Z" fill="#7F529A"/>
<path d="M32.1975 23.3376C32.0466 23.287 31.8994 23.2259 31.7571 23.1547C30.359 22.6354 28.8278 22.5972 27.4056 23.0462C28.0908 24.3757 29.2022 25.4369 30.5619 26.0599C30.7127 26.1117 30.8598 26.1734 31.0024 26.2445C32.3998 26.7645 33.931 26.8021 35.3522 26.3514C34.6668 25.0227 33.5562 23.9617 32.1975 23.3376Z" fill="#7F529A"/>
<path d="M17.2421 29.4008C17.2432 28.7253 17.1411 28.0536 16.9393 27.4089C15.5469 28.1296 14.4529 29.3177 13.8491 30.7646C13.2453 32.2115 13.1703 33.8248 13.6372 35.3215C14.7234 34.7602 15.6343 33.911 16.2701 32.8667C16.9059 31.8225 17.2422 30.6234 17.2421 29.4008Z" fill="#7F529A"/>
<path d="M9.4397 13.9352C9.28967 13.8836 9.14309 13.8225 9.00083 13.7522C7.60325 13.2308 6.07125 13.1926 4.64941 13.6437C5.33495 14.973 6.44623 16.0341 7.80569 16.6575C7.95601 16.709 8.10264 16.7707 8.24456 16.8421C9.64251 17.3621 11.1742 17.3997 12.596 16.949C11.9099 15.6202 10.7988 14.5592 9.4397 13.9352Z" fill="#7F529A"/>
<path d="M31.0024 13.7522C30.8595 13.8222 30.7124 13.8833 30.5619 13.9352C29.2028 14.5592 28.0917 15.6202 27.4056 16.949C28.8274 17.3997 30.3591 17.3621 31.7571 16.8421C31.8994 16.7704 32.0466 16.7087 32.1975 16.6575C33.5565 16.034 34.6673 14.9729 35.3522 13.6437C33.9309 13.1926 32.3994 13.2308 31.0024 13.7522Z" fill="#7F529A"/>
<path d="M8.24456 23.1579C8.10261 23.2288 7.95598 23.29 7.80569 23.3409C6.44658 23.9648 5.33546 25.0258 4.64941 26.3547C6.07121 26.8053 7.60287 26.7677 9.00083 26.2478C9.14275 26.1763 9.28938 26.1146 9.4397 26.0632C10.7994 25.4401 11.9108 24.3789 12.596 23.0494C11.1738 22.6005 9.64257 22.6386 8.24456 23.1579Z" fill="#7F529A"/>
<path d="M66.3563 27.6923C65.2876 27.6919 64.2627 27.267 63.5072 26.5111C62.7516 25.7553 62.3272 24.7303 62.3272 23.6615V16.4502H62.2397L58.3935 23.7684C58.21 24.1181 57.9343 24.4109 57.5964 24.6153C57.2584 24.8196 56.8711 24.9277 56.4761 24.9279C56.0807 24.9281 55.6928 24.8199 55.3546 24.6152C55.0163 24.4105 54.7405 24.1171 54.5571 23.7668L50.7239 16.4502H50.6235V23.6615C50.6235 24.7303 50.1991 25.7553 49.4435 26.5111C48.6879 27.267 47.6631 27.6919 46.5944 27.6923V9.68744H48.7126C49.6662 9.68776 50.601 9.95269 51.413 10.4528C52.225 10.9528 52.8823 11.6684 53.3118 12.5198L56.4259 18.6899H56.5215L59.634 12.5198C60.0638 11.6683 60.7214 10.9526 61.5336 10.4526C62.3459 9.95251 63.281 9.68764 64.2348 9.68744H66.3531V27.6923H66.3563Z" fill="white"/>
<path d="M69.0786 23.1125V9.68744C70.2929 9.68787 71.4574 10.1706 72.3159 11.0294C73.1744 11.8882 73.6567 13.0529 73.6567 14.2672V27.6923C73.0553 27.6923 72.4599 27.5738 71.9043 27.3437C71.3488 27.1135 70.844 26.7761 70.4189 26.3508C69.9937 25.9255 69.6566 25.4207 69.4266 24.865C69.1966 24.3094 69.0783 23.7139 69.0786 23.1125Z" fill="white"/>
<path d="M75.8785 18.6834C75.8785 12.8081 79.2583 9.37653 84.6235 9.37653C89.1773 9.37653 92.6332 12.3077 92.7709 16.562H90.3968C89.8881 16.5644 89.3887 16.4253 88.9546 16.1602C88.5204 15.8951 88.1686 15.5144 87.9385 15.0607C87.6356 14.4442 87.1624 13.9274 86.5749 13.5715C85.9874 13.2156 85.3102 13.0355 84.6235 13.0526C82.1279 13.0526 80.5441 15.1854 80.5441 18.6786C80.5441 22.2105 82.1166 24.3466 84.6364 24.3466C86.1247 24.3466 87.3118 23.6211 87.9433 22.3871C88.1754 21.9413 88.5258 21.5681 88.956 21.3085C89.3862 21.0488 89.8797 20.9126 90.3822 20.915H92.7968C92.5846 25.1952 89.2664 28.0146 84.6251 28.0146C79.234 28.0033 75.8785 24.5717 75.8785 18.6834Z" fill="white"/>
<path d="M107.283 27.6923H94.9425V9.68744H107.283C107.283 10.6671 106.893 11.6067 106.201 12.2994C105.508 12.9922 104.568 13.3814 103.589 13.3814H99.5223V16.9619H103.036V20.3304H99.5223V23.9984H103.589C104.074 23.9984 104.554 24.0939 105.002 24.2796C105.45 24.4652 105.858 24.7373 106.201 25.0803C106.544 25.4233 106.816 25.8305 107.001 26.2787C107.187 26.7269 107.283 27.2072 107.283 27.6923Z" fill="white"/>
<path d="M114.807 27.6923V11.7101H109.138V9.68744H122.742V11.7101H117.053V27.6923H114.807Z" fill="white"/>
<path d="M139.872 18.6964C139.872 24.4097 136.679 27.9903 131.576 27.9903C126.473 27.9903 123.279 24.4097 123.279 18.6964C123.279 12.983 126.481 9.39273 131.576 9.39273C136.67 9.39273 139.872 12.9814 139.872 18.6964ZM125.587 18.6964C125.587 23.1255 127.895 25.9207 131.579 25.9207C135.263 25.9207 137.571 23.1255 137.571 18.6964C137.571 14.2672 135.263 11.4591 131.579 11.4591C127.895 11.4591 125.587 14.251 125.587 18.6964Z" fill="white"/>
<path d="M144.913 21.2291C144.913 23.9482 146.695 25.9255 149.817 25.9255C152.939 25.9255 154.721 23.953 154.721 21.2291V9.68744H156.967V21.3765C156.967 25.2194 154.283 27.9887 149.817 27.9887C145.351 27.9887 142.675 25.221 142.675 21.3765V9.68744H144.92L144.913 21.2291Z" fill="white"/>
<path d="M162.706 27.6923H160.462V9.68744H167.211C170.679 9.68744 172.949 11.8089 172.949 15.0526C172.949 17.5611 171.59 19.5077 169.331 20.2186L173.498 27.6923H170.866L167.011 20.5668H162.706V27.6923ZM162.706 18.583H167.011C169.318 18.583 170.63 17.336 170.63 15.1271C170.63 12.97 169.232 11.6842 166.905 11.6842H162.695L162.706 18.583Z" fill="white"/>
<path d="M177.143 22.8631C177.404 24.7968 179.202 25.9692 181.785 25.9692C184.23 25.9692 185.995 24.685 185.995 22.9134C185.995 21.404 184.996 20.4049 182.502 19.8559L180.505 19.4202C176.899 18.6332 175.339 16.9911 175.339 14.4421C175.339 11.4721 177.96 9.38947 181.691 9.38947C185.283 9.38947 187.879 11.5352 187.979 14.5911H185.733C185.534 12.6202 183.974 11.4105 181.628 11.4105C179.381 11.4105 177.649 12.5085 177.649 14.3417C177.649 15.7636 178.609 16.7368 181.067 17.2745L183.062 17.7101C186.818 18.5344 188.303 20.0308 188.303 22.5765C188.303 25.9077 185.683 27.9903 181.653 27.9903C177.723 27.9903 175.103 25.9692 174.891 22.8631H177.143Z" fill="white"/>
</svg>
