<svg width="430" height="92" viewBox="0 0 430 92" fill="none" xmlns="http://www.w3.org/2000/svg">
<path d="M24.152 82.3595C27.1625 82.3595 30.1054 81.4668 32.6085 79.7943C35.1116 78.1218 37.0626 75.7445 38.2146 72.9632C39.3667 70.1819 39.6681 67.1214 39.0808 64.1688C38.4935 61.2161 37.0438 58.504 34.9151 56.3753C32.7863 54.2465 30.0742 52.7968 27.1215 52.2095C24.1689 51.6222 21.1084 51.9236 18.3271 53.0757C15.5458 54.2278 13.1686 56.1787 11.496 58.6818C9.8235 61.1849 8.93079 64.1278 8.93079 67.1383C8.93079 71.1752 10.5344 75.0468 13.389 77.9013C16.2435 80.7559 20.1151 82.3595 24.152 82.3595ZM24.152 59.0617C25.745 59.0617 27.3022 59.5339 28.6269 60.4185C29.9517 61.3031 30.9845 62.5605 31.5949 64.0319C32.2054 65.5032 32.366 67.1225 32.0566 68.6851C31.7472 70.2477 30.9816 71.6835 29.8565 72.8112C28.7314 73.9389 27.2973 74.7078 25.7354 75.0208C24.1735 75.3338 22.5539 75.1769 21.0811 74.5698C19.6084 73.9627 18.3486 72.9328 17.461 71.6101C16.5733 70.2874 16.0976 68.7312 16.0939 67.1383C16.0939 65.0012 16.9429 62.9516 18.4541 61.4404C19.9653 59.9292 22.0149 59.0802 24.152 59.0802V59.0617Z" fill="#642D91"/>
<path d="M45.6747 91.3422C48.685 91.3415 51.6275 90.4482 54.1302 88.7752C56.6328 87.1022 58.5832 84.7247 59.7347 81.9433C60.8862 79.1619 61.1871 76.1016 60.5993 73.1492C60.0116 70.1968 58.5616 67.485 56.4327 65.3566C54.3039 63.2283 51.5917 61.7789 48.6392 61.1919C45.6866 60.6049 42.6264 60.9066 39.8453 62.0587C37.0642 63.2109 34.6871 65.1618 33.0148 67.6649C31.3424 70.1679 30.4498 73.1107 30.4498 76.121C30.4498 78.1202 30.8436 80.0998 31.6088 81.9468C32.374 83.7937 33.4955 85.4719 34.9093 86.8853C36.3231 88.2988 38.0015 89.4199 39.8487 90.1846C41.6958 90.9494 43.6755 91.3427 45.6747 91.3422ZM45.6747 68.0629C47.2685 68.0629 48.8264 68.5355 50.1515 69.4209C51.4767 70.3064 52.5095 71.5649 53.1194 73.0373C53.7293 74.5097 53.8889 76.1299 53.578 77.693C53.267 79.2561 52.4996 80.692 51.3726 81.8189C50.2457 82.9459 48.8099 83.7133 47.2468 84.0242C45.6837 84.3352 44.0634 84.1756 42.591 83.5657C41.1186 82.9558 39.8601 81.923 38.9747 80.5978C38.0892 79.2727 37.6166 77.7147 37.6166 76.121C37.6142 75.0612 37.8208 74.0114 38.2247 73.0316C38.6286 72.0518 39.2217 71.1613 39.9703 70.4111C40.7188 69.6609 41.6079 69.0657 42.5868 68.6595C43.5656 68.2534 44.615 68.0444 45.6747 68.0444V68.0629Z" fill="#642D91"/>
<path d="M15.2286 30.4425C12.2173 30.4418 9.27333 31.3341 6.76911 33.0066C4.2649 34.6791 2.3129 37.0566 1.16 39.8385C0.00709133 42.6205 -0.294941 45.6818 0.292099 48.6354C0.879139 51.589 2.32888 54.3022 4.45798 56.4318C6.58708 58.5614 9.2999 60.0118 12.2533 60.5996C15.2068 61.1873 18.2682 60.886 21.0504 59.7338C23.8326 58.5816 26.2107 56.6301 27.8838 54.1263C29.5569 51.6225 30.4499 48.6788 30.4499 45.6674C30.4504 43.6682 30.057 41.6885 29.2923 39.8414C28.5276 37.9942 27.4065 36.3158 25.993 34.902C24.5795 33.4882 22.9014 32.3667 21.0544 31.6015C19.2074 30.8363 17.2278 30.4425 15.2286 30.4425ZM15.2286 53.7403C13.6363 53.7367 12.0808 53.2613 10.7584 52.3743C9.43601 51.4873 8.40605 50.2284 7.79856 48.7565C7.19106 47.2847 7.03326 45.6658 7.34507 44.1043C7.65688 42.5428 8.42432 41.1087 9.55052 39.983C10.6767 38.8573 12.1112 38.0906 13.6728 37.7795C15.2345 37.4684 16.8532 37.6269 18.3249 38.2351C19.7965 38.8432 21.0549 39.8738 21.9413 41.1966C22.8277 42.5194 23.3023 44.0751 23.3052 45.6674C23.3052 46.727 23.0962 47.7762 22.69 48.7549C22.2838 49.7335 21.6886 50.6224 20.9383 51.3706C20.188 52.1188 19.2975 52.7116 18.3177 53.1151C17.338 53.5186 16.2882 53.7247 15.2286 53.7218V53.7403Z" fill="#642D91"/>
<path d="M67.1938 82.3595C70.2042 82.3595 73.1471 81.4668 75.6502 79.7943C78.1534 78.1218 80.1043 75.7445 81.2564 72.9632C82.4084 70.1819 82.7099 67.1214 82.1225 64.1688C81.5352 61.2161 80.0855 58.504 77.9568 56.3753C75.8281 54.2465 73.1159 52.7968 70.1633 52.2095C67.2107 51.6222 64.1502 51.9236 61.3689 53.0757C58.5875 54.2278 56.2103 56.1787 54.5378 58.6818C52.8652 61.1849 51.9725 64.1278 51.9725 67.1383C51.9725 71.1752 53.5762 75.0468 56.4307 77.9013C59.2853 80.7559 63.1568 82.3595 67.1938 82.3595ZM67.1938 59.0617C68.7877 59.061 70.346 59.533 71.6716 60.418C72.9972 61.3029 74.0306 62.5612 74.6411 64.0336C75.2516 65.5059 75.4117 67.1262 75.1012 68.6896C74.7907 70.253 74.0235 71.6891 72.8967 72.8164C71.7699 73.9437 70.3341 74.7116 68.7709 75.0228C67.2077 75.334 65.5873 75.1746 64.1146 74.5649C62.642 73.9551 61.3833 72.9222 60.4977 71.597C59.6121 70.2718 59.1394 68.7137 59.1394 67.1198C59.1433 64.9862 59.9936 62.9413 61.5037 61.4341C63.0137 59.9268 65.0602 59.0802 67.1938 59.0802V59.0617Z" fill="#642D91"/>
<path d="M76.1173 30.4423C73.1064 30.4438 70.1635 31.338 67.6608 33.0118C65.158 34.6856 63.2077 37.0639 62.0565 39.8461C60.9053 42.6282 60.6049 45.6892 61.1932 48.642C61.7815 51.5949 63.2321 54.307 65.3616 56.4355C67.4912 58.564 70.204 60.0133 73.1571 60.6002C76.1103 61.1871 79.1711 60.8851 81.9527 59.7326C84.7342 58.58 87.1116 56.6286 88.7842 54.125C90.4568 51.6214 91.3496 48.6782 91.3496 45.6673C91.3501 43.6671 90.9563 41.6865 90.1909 39.8386C89.4255 37.9908 88.3034 36.3119 86.8888 34.8979C85.4741 33.4839 83.7947 32.3627 81.9464 31.5981C80.0982 30.8336 78.1174 30.4409 76.1173 30.4423ZM76.1173 53.7401C74.5234 53.7401 72.9653 53.2675 71.64 52.3819C70.3148 51.4963 69.282 50.2375 68.6722 48.7649C68.0624 47.2923 67.9031 45.6719 68.2143 44.1086C68.5255 42.5454 69.2933 41.1096 70.4206 39.9828C71.548 38.856 72.9841 38.0889 74.5475 37.7784C76.1108 37.4678 77.7312 37.628 79.2035 38.2384C80.6759 38.8489 81.9341 39.8823 82.8191 41.2079C83.7041 42.5335 84.1761 44.0919 84.1753 45.6858C84.1695 47.819 83.3179 49.863 81.8073 51.3693C80.2968 52.8757 78.2505 53.7217 76.1173 53.7217V53.7401Z" fill="#642D91"/>
<path d="M67.1938 8.9715C64.1826 8.9715 61.239 9.86442 58.7353 11.5374C56.2316 13.2103 54.2802 15.5881 53.1278 18.3701C51.9755 21.1521 51.674 24.2133 52.2615 27.1667C52.8489 30.12 54.2989 32.8328 56.4282 34.9621C58.5574 37.0913 61.2702 38.5414 64.2236 39.1288C67.1769 39.7163 70.2382 39.4148 73.0201 38.2624C75.8021 37.1101 78.1799 35.1587 79.8529 32.655C81.5258 30.1512 82.4187 27.2076 82.4187 24.1964C82.4192 22.1969 82.0258 20.2169 81.2608 18.3695C80.4959 16.5221 79.3744 14.8436 77.9605 13.4297C76.5467 12.0158 74.8681 10.8944 73.0207 10.1294C71.1733 9.36448 69.1933 8.97101 67.1938 8.9715ZM67.1938 32.2508C65.5999 32.2508 64.0418 31.7781 62.7166 30.8925C61.3914 30.0069 60.3586 28.7482 59.7488 27.2756C59.139 25.8029 58.9796 24.1825 59.2909 22.6193C59.6021 21.0561 60.3699 19.6203 61.4972 18.4935C62.6245 17.3667 64.0607 16.5995 65.624 16.289C67.1874 15.9785 68.8077 16.1386 70.2801 16.7491C71.7524 17.3596 73.0107 18.393 73.8957 19.7186C74.7807 21.0442 75.2526 22.6025 75.2519 24.1964C75.2519 25.2545 75.0434 26.3021 74.6384 27.2796C74.2334 28.257 73.6398 29.1451 72.8915 29.8931C72.1432 30.641 71.2549 31.2342 70.2772 31.6388C69.2996 32.0433 68.2518 32.2513 67.1938 32.2508Z" fill="#642D91"/>
<path d="M45.675 0C42.6645 0 39.7216 0.89271 37.2185 2.56524C34.7154 4.23777 32.7644 6.61501 31.6124 9.39632C30.4603 12.1776 30.1589 15.2381 30.7462 18.1908C31.3335 21.1434 32.7832 23.8556 34.9119 25.9843C37.0407 28.113 39.7528 29.5627 42.7055 30.15C45.6581 30.7373 48.7186 30.4359 51.4999 29.2838C54.2812 28.1318 56.6584 26.1808 58.3309 23.6777C60.0035 21.1746 60.8962 18.2317 60.8962 15.2212C60.8962 11.1843 59.2925 7.31273 56.438 4.4582C53.5835 1.60366 49.7119 0 45.675 0V0ZM45.675 23.2978C44.0811 23.2985 42.5228 22.8266 41.1971 21.9416C39.8715 21.0566 38.8381 19.7983 38.2276 18.326C37.6172 16.8536 37.4571 15.2333 37.7676 13.6699C38.0781 12.1066 38.8452 10.6704 39.972 9.54311C41.0988 8.4158 42.5346 7.64797 44.0979 7.33675C45.6611 7.02553 47.2815 7.18489 48.7541 7.79467C50.2267 8.40446 51.4855 9.43729 52.3711 10.7625C53.2567 12.0877 53.7293 13.6458 53.7293 15.2397C53.7293 17.3762 52.8809 19.4253 51.3705 20.9363C49.8601 22.4474 47.8115 23.2968 45.675 23.2978Z" fill="#642D91"/>
<path d="M24.1521 8.9715C21.1407 8.97077 18.1968 9.86307 15.6926 11.5356C13.1884 13.2081 11.2364 15.5856 10.0835 18.3675C8.93055 21.1495 8.62852 24.2108 9.21556 27.1644C9.8026 30.118 11.2523 32.8312 13.3814 34.9608C15.5105 37.0904 18.2234 38.5408 21.1768 39.1286C24.1303 39.7163 27.1917 39.415 29.9739 38.2628C32.7561 37.1106 35.1341 35.1591 36.8072 32.6553C38.4803 30.1515 39.3733 27.2078 39.3733 24.1964C39.3738 22.1972 38.9805 20.2175 38.2158 18.3704C37.451 16.5232 36.3299 14.8448 34.9165 13.431C33.503 12.0172 31.8248 10.8957 29.9779 10.1305C28.1309 9.36533 26.1513 8.9715 24.1521 8.9715ZM24.1521 32.2508C22.5582 32.2508 21.0001 31.7781 19.6749 30.8925C18.3497 30.0069 17.3168 28.7482 16.7071 27.2756C16.0973 25.8029 15.9379 24.1825 16.2491 22.6193C16.5603 21.0561 17.3282 19.6203 18.4555 18.4935C19.5828 17.3667 21.019 16.5995 22.5823 16.289C24.1457 15.9785 25.766 16.1386 27.2384 16.7491C28.7107 17.3596 29.969 18.393 30.854 19.7186C31.7389 21.0442 32.2109 22.6025 32.2102 24.1964C32.2092 26.3329 31.3598 28.3816 29.8487 29.892C28.3376 31.4024 26.2886 32.2508 24.1521 32.2508Z" fill="#642D91"/>
<path d="M39.3734 24.1965C39.3743 21.4044 38.6068 18.666 37.1547 16.2812C35.7027 13.8964 33.6223 11.9573 31.1415 10.6763C30.0753 14.0935 30.2467 17.777 31.6255 21.0805C33.0044 24.3839 35.5026 27.0962 38.6818 28.7414C39.1425 27.2705 39.3757 25.7378 39.3734 24.1965Z" fill="#B5287C"/>
<path d="M60.8962 15.2213C60.8967 13.68 60.6635 12.1476 60.2046 10.6763C57.0254 12.3215 54.5272 15.0338 53.1484 18.3372C51.7695 21.6407 51.5981 25.3242 52.6643 28.7414C55.1449 27.4601 57.225 25.5209 58.677 23.1362C60.129 20.7515 60.8967 18.0132 60.8962 15.2213Z" fill="#B5287C"/>
<path d="M60.896 76.11C60.8961 73.3181 60.1282 70.58 58.6763 68.1954C57.2244 65.8107 55.1444 63.8715 52.6641 62.5898C51.5977 66.0076 51.7689 69.6917 53.1478 72.9957C54.5266 76.2998 57.025 79.0127 60.2044 80.6586C60.663 79.1859 60.8962 77.6524 60.896 76.11Z" fill="#B5287C"/>
<path d="M73.5249 53.2929C73.1802 53.1773 72.8441 53.0377 72.519 52.875C69.3266 51.6893 65.8299 51.6021 62.5823 52.6272C64.1468 55.6633 66.6848 58.0866 69.7898 59.5093C70.134 59.6275 70.4701 59.7684 70.7957 59.9309C73.9867 61.1182 77.4832 61.2041 80.7287 60.175C79.1635 57.1407 76.6274 54.7179 73.5249 53.2929Z" fill="#B5287C"/>
<path d="M39.3732 67.1385C39.3758 65.5959 39.1426 64.062 38.6817 62.5898C35.5022 64.2357 33.0039 66.9487 31.625 70.2527C30.2462 73.5568 30.075 77.2409 31.1413 80.6586C33.6217 79.377 35.7016 77.4377 37.1535 75.0531C38.6054 72.6684 39.3734 69.9303 39.3732 67.1385Z" fill="#B5287C"/>
<path d="M21.5561 31.8219C21.2135 31.704 20.8788 31.5644 20.5539 31.404C17.3625 30.2132 13.8641 30.126 10.6172 31.1563C12.1827 34.1916 14.7203 36.6147 17.8247 38.0384C18.168 38.1559 18.5029 38.2968 18.8269 38.4599C22.0192 39.6473 25.5169 39.7332 28.7636 38.704C27.197 35.6695 24.6597 33.2468 21.5561 31.8219Z" fill="#B5287C"/>
<path d="M70.7957 31.404C70.4693 31.5638 70.1334 31.7033 69.7898 31.8219C66.6862 33.2468 64.1489 35.6695 62.5823 38.704C65.8291 39.7332 69.3267 39.6473 72.519 38.4599C72.844 38.2961 73.1802 38.1552 73.5249 38.0384C76.6282 36.6145 79.1647 34.1914 80.7287 31.1563C77.4831 30.126 73.9859 30.2132 70.7957 31.404Z" fill="#B5287C"/>
<path d="M18.8269 52.8822C18.5028 53.0442 18.1679 53.1838 17.8247 53.3001C14.7212 54.7249 12.1838 57.1477 10.6172 60.1822C13.864 61.2114 17.3616 61.1255 20.5539 59.9381C20.878 59.775 21.2128 59.6341 21.5561 59.5166C24.6612 58.0939 27.1991 55.6705 28.7636 52.6344C25.5161 51.6093 22.0194 51.6965 18.8269 52.8822Z" fill="#B5287C"/>
<path d="M151.528 63.2369C149.088 63.236 146.747 62.2658 145.022 60.5397C143.297 58.8136 142.327 56.473 142.327 54.0325V37.565H142.128L133.345 54.2765C132.926 55.075 132.296 55.7437 131.524 56.2104C130.753 56.677 129.868 56.9239 128.966 56.9243C128.063 56.9246 127.178 56.6777 126.405 56.2103C125.633 55.7428 125.003 55.0728 124.584 54.2728L115.831 37.565H115.602V54.0325C115.602 56.473 114.632 58.8136 112.907 60.5397C111.182 62.2658 108.841 63.236 106.401 63.2369V22.1218H111.238C113.415 22.1226 115.55 22.7275 117.404 23.8695C119.259 25.0114 120.76 26.6454 121.74 28.5897L128.852 42.6794H129.07L136.178 28.5897C137.159 26.6451 138.661 25.0109 140.515 23.869C142.37 22.7271 144.506 22.1223 146.684 22.1218H151.521V63.2369H151.528Z" fill="#264698"/>
<path d="M157.745 52.7788V22.1218C160.518 22.1228 163.177 23.2251 165.137 25.1862C167.098 27.1474 168.199 29.8069 168.199 32.58V63.2369C166.826 63.2369 165.466 62.9664 164.198 62.4408C162.929 61.9152 161.776 61.1448 160.805 60.1736C159.835 59.2024 159.065 58.0495 158.539 56.7807C158.014 55.5119 157.744 54.152 157.745 52.7788Z" fill="#264698"/>
<path d="M173.273 42.6647C173.273 29.2481 180.991 21.4119 193.242 21.4119C203.641 21.4119 211.533 28.1054 211.847 37.8202H206.426C205.264 37.8258 204.124 37.5081 203.133 36.9027C202.141 36.2973 201.338 35.428 200.812 34.3921C200.121 32.9842 199.04 31.804 197.699 30.9913C196.357 30.1785 194.811 29.7674 193.242 29.8065C187.544 29.8065 183.927 34.6768 183.927 42.6536C183.927 50.719 187.518 55.5968 193.272 55.5968C196.671 55.5968 199.381 53.9401 200.823 51.1221C201.353 50.1043 202.153 49.2521 203.136 48.6591C204.118 48.0661 205.245 47.7552 206.393 47.7606H211.907C211.422 57.5346 203.845 63.9729 193.246 63.9729C180.935 63.947 173.273 56.1108 173.273 42.6647Z" fill="#264698"/>
<path d="M244.986 63.2369H216.807V22.1218H244.986C244.986 24.359 244.097 26.5046 242.515 28.0865C240.933 29.6684 238.788 30.5571 236.55 30.5571H227.265V38.7335H235.289V46.4255H227.265V54.8017H236.55C237.658 54.8017 238.755 55.0198 239.778 55.4438C240.802 55.8677 241.732 56.489 242.515 57.2723C243.298 58.0556 243.92 58.9855 244.344 60.0089C244.768 61.0323 244.986 62.1292 244.986 63.2369Z" fill="#264698"/>
<path d="M262.167 63.2369V26.7407H249.224V22.1218H280.288V26.7407H267.296V63.2369H262.167Z" fill="#264698"/>
<path d="M319.406 42.6941C319.406 55.7409 312.113 63.9173 300.46 63.9173C288.808 63.9173 281.515 55.7409 281.515 42.6941C281.515 29.6473 288.826 21.4487 300.46 21.4487C312.095 21.4487 319.406 29.6436 319.406 42.6941ZM286.785 42.6941C286.785 52.8083 292.055 59.1912 300.468 59.1912C308.881 59.1912 314.151 52.8083 314.151 42.6941C314.151 32.5799 308.881 26.1675 300.468 26.1675C292.055 26.1675 286.785 32.5429 286.785 42.6941Z" fill="#264698"/>
<path d="M330.918 48.478C330.918 54.687 334.986 59.2024 342.115 59.2024C349.245 59.2024 353.313 54.6981 353.313 48.478V22.1218H358.442V48.8145C358.442 57.59 352.315 63.9137 342.115 63.9137C331.916 63.9137 325.807 57.5937 325.807 48.8145V22.1218H330.932L330.918 48.478Z" fill="#264698"/>
<path d="M371.548 63.2369H366.423V22.1218H381.836C389.754 22.1218 394.939 26.9663 394.939 34.3735C394.939 40.1018 391.836 44.5469 386.677 46.1704L396.192 63.2369H390.183L381.378 46.9654H371.548V63.2369ZM371.548 42.4353H381.378C386.648 42.4353 389.643 39.5878 389.643 34.5436C389.643 29.6178 386.452 26.6815 381.137 26.6815H371.522L371.548 42.4353Z" fill="#264698"/>
<path d="M404.517 52.2092C405.112 56.6247 409.217 59.3021 415.115 59.3021C420.699 59.3021 424.73 56.3695 424.73 52.3238C424.73 48.8772 422.449 46.5955 416.754 45.3419L412.194 44.3471C403.958 42.5498 400.397 38.8 400.397 32.9792C400.397 26.197 406.38 21.4413 414.901 21.4413C423.103 21.4413 429.031 26.3412 429.26 33.3195H424.131C423.676 28.8189 420.115 26.0565 414.757 26.0565C409.627 26.0565 405.67 28.5638 405.67 32.75C405.67 35.9969 407.863 38.2194 413.477 39.4472L418.033 40.4419C426.609 42.3243 430 45.7413 430 51.5546C430 59.1616 424.017 63.9173 414.816 63.9173C405.841 63.9173 399.857 59.3021 399.373 52.2092H404.517Z" fill="#264698"/>
</svg>
