<svg width="22" height="18" viewBox="0 0 22 18" fill="none" xmlns="http://www.w3.org/2000/svg">
<path d="M15.5455 17V15.2222C15.5455 14.2792 15.1623 13.3749 14.4804 12.7081C13.7984 12.0413 12.8735 11.6667 11.9091 11.6667H4.63636C3.67194 11.6667 2.74702 12.0413 2.06507 12.7081C1.38312 13.3749 1 14.2792 1 15.2222V17" stroke="#264698" stroke-width="1.5" stroke-linecap="round" stroke-linejoin="round"/>
<path d="M8.27308 8.11111C10.2814 8.11111 11.9094 6.51923 11.9094 4.55556C11.9094 2.59188 10.2814 1 8.27308 1C6.26477 1 4.63672 2.59188 4.63672 4.55556C4.63672 6.51923 6.26477 8.11111 8.27308 8.11111Z" stroke="#264698" stroke-width="1.5" stroke-linecap="round" stroke-linejoin="round"/>
<path d="M20.9997 17V15.2222C20.9991 14.4344 20.731 13.6691 20.2373 13.0465C19.7437 12.4239 19.0526 11.9792 18.2725 11.7822" stroke="#264698" stroke-width="1.5" stroke-linecap="round" stroke-linejoin="round"/>
<path d="M14.6367 1.11555C15.4189 1.31138 16.1122 1.75618 16.6073 2.37983C17.1024 3.00348 17.3711 3.77051 17.3711 4.56C17.3711 5.34948 17.1024 6.11651 16.6073 6.74017C16.1122 7.36382 15.4189 7.80862 14.6367 8.00444" stroke="#264698" stroke-width="1.5" stroke-linecap="round" stroke-linejoin="round"/>
</svg>
