<svg width="120" height="93" viewBox="0 0 120 93" fill="none" xmlns="http://www.w3.org/2000/svg">
<path d="M9.06842e-07 82.6269C4.99728 81.1962 9.51862 78.9308 13.564 75.8308C17.6094 72.7308 21.0599 69.1538 23.9155 65.1C26.7711 61.2846 28.9128 57.1115 30.3406 52.5808C31.7684 48.05 32.2443 43.6385 31.7684 39.3462L11.0654 39.3462C9.16167 36.7231 7.6149 33.7423 6.42507 30.4038C5.23524 27.0654 4.64031 24.0846 4.64031 21.4615C4.64031 17.4077 5.23524 13.4731 6.42507 9.65768C7.6149 6.08075 9.16167 2.86152 11.0654 -9.52337e-06L51.0436 -6.02836e-06C54.851 8.82307 56.9927 17.2885 57.4687 25.3961C57.4687 38.9885 54.97 50.3154 49.9728 59.3769C44.7375 68.6769 38.4314 76.0692 31.0545 81.5538C23.4396 87.2769 15.2298 91.0923 6.42506 93L9.06842e-07 82.6269ZM62.5313 82.6269C67.5286 81.1962 72.05 78.9308 76.0954 75.8308C80.1408 72.7308 83.5913 69.1538 86.4469 65.1C89.3025 61.2846 91.4441 57.1115 92.8719 52.5808C94.2997 48.05 94.7757 43.6385 94.2997 39.3462L73.5967 39.3462C71.693 36.7231 70.1462 33.7423 68.9564 30.4038C67.7666 27.0654 67.1717 24.0846 67.1717 21.4615C67.1717 17.4077 67.7666 13.4731 68.9564 9.65769C70.1462 6.08075 71.693 2.86152 73.5967 -4.0567e-06L113.575 -5.61697e-07C117.382 8.82307 119.524 17.2885 120 25.3961C120 38.9885 117.501 50.3154 112.504 59.3769C107.269 68.6769 100.963 76.0692 93.5858 81.5538C85.9709 87.2769 77.7611 91.0923 68.9564 93L62.5313 82.6269Z" fill="#A8377A" fill-opacity="0.1"/>
</svg>
